<svg width="106" height="60" viewBox="0 0 106 60" fill="none" xmlns="http://www.w3.org/2000/svg">
<path d="M53.425 27.4082C52.9819 26.8184 52.7699 26.1213 52.8203 25.4196V22.5364C52.8203 21.6526 53.0207 20.9809 53.4216 20.5214C53.8224 20.0619 54.511 19.8331 55.4871 19.8351C56.4044 19.8351 57.0555 20.0306 57.4405 20.4217C57.8605 20.9207 58.0648 21.5308 58.018 22.1463V22.8239H56.3772V22.1375C56.383 21.9129 56.3671 21.6882 56.3296 21.4659C56.306 21.3138 56.2234 21.1732 56.0952 21.067C55.9267 20.9525 55.7145 20.8969 55.5007 20.9115C55.2759 20.897 55.0529 20.9556 54.8756 21.0758C54.7327 21.1935 54.6374 21.3477 54.6038 21.5157C54.5567 21.7511 54.5351 21.9897 54.5393 22.2285V25.7276C54.5134 26.0651 54.5858 26.4029 54.7499 26.7102C54.8315 26.8141 54.9448 26.8965 55.0774 26.9483C55.2099 27 55.3564 27.0191 55.5007 27.0035C55.7109 27.0184 55.9195 26.9615 56.0816 26.8451C56.2153 26.7305 56.3013 26.581 56.3262 26.4198C56.3645 26.1876 56.3816 25.9532 56.3772 25.7188V25.009H58.018V25.6572C58.0641 26.2987 57.8648 26.9356 57.4507 27.4698C57.0736 27.898 56.4315 28.1122 55.4871 28.1122C54.5427 28.1122 53.8292 27.8834 53.425 27.4082Z" fill="#AFB1B8"/>
<path d="M60.2569 27.4376C59.8425 26.9888 59.6353 26.3347 59.6353 25.4695V22.4367C59.6353 21.5802 59.8425 20.932 60.2569 20.4921C60.6714 20.0521 61.3644 19.8331 62.336 19.8351C63.3008 19.8351 63.9904 20.0541 64.4049 20.4921C64.8193 20.932 65.03 21.5802 65.03 22.4367V25.4695C65.03 26.3259 64.8193 26.9829 64.3981 27.4346C63.9768 27.8863 63.2906 28.1122 62.336 28.1122C61.3814 28.1122 60.6748 27.8834 60.2569 27.4376ZM63.1004 26.7102C63.2488 26.429 63.3164 26.1211 63.2974 25.8126V22.0994C63.3165 21.7969 63.25 21.4949 63.1038 21.2195C63.0205 21.1133 62.9044 21.0296 62.7686 20.9777C62.6329 20.9258 62.483 20.908 62.336 20.9262C62.1886 20.9084 62.0384 20.9265 61.9022 20.9783C61.766 21.0301 61.6492 21.1136 61.5648 21.2195C61.4155 21.4941 61.3477 21.7965 61.3678 22.0994V25.8302C61.3472 26.1388 61.4148 26.4471 61.5648 26.7278C61.6605 26.8224 61.7785 26.8982 61.9109 26.9502C62.0434 27.0021 62.1872 27.029 62.3326 27.029C62.4781 27.029 62.6219 27.0021 62.7543 26.9502C62.8867 26.8982 63.0047 26.8224 63.1004 26.7278V26.7102Z" fill="#AFB1B8"/>
<path d="M67.0037 19.9236H68.7702L70.0985 25.5192L71.4574 19.9236H73.1764L73.3497 28.0003H72.0791L71.9432 22.3871L70.6319 28.0003H69.6127L68.2538 22.3665L68.1281 28.0003H66.844L67.0037 19.9236Z" fill="#AFB1B8"/>
<path d="M75.3303 19.9236H78.082C79.6673 19.9236 80.46 20.688 80.46 22.217C80.46 23.6814 79.6254 24.4126 77.9563 24.4106H77.0187V28.0003H75.3201L75.3303 19.9236ZM77.6811 23.3754C77.8489 23.3938 78.0194 23.3805 78.1807 23.3364C78.342 23.2924 78.4903 23.2186 78.6153 23.1202C78.8101 22.8474 78.896 22.5271 78.8599 22.2082C78.8688 21.9618 78.8414 21.7154 78.7784 21.475C78.7542 21.3947 78.7117 21.3193 78.6533 21.2534C78.595 21.1874 78.522 21.1321 78.4387 21.0908C78.2029 20.9931 77.9422 20.9487 77.6811 20.9618H77.0221V23.3754H77.6811Z" fill="#AFB1B8"/>
<path d="M82.9094 19.9236H84.7337L86.6056 28.0003H85.0225L84.6522 26.138H83.0249L82.6445 28.0003H81.0376L82.9094 19.9236ZM84.4687 25.2025L83.8335 21.8122L83.1982 25.2025H84.4687Z" fill="#AFB1B8"/>
<path d="M88.1174 19.9236H89.3064L91.5826 24.5309V19.9236H92.9924V28.0003H91.8612L89.5714 23.1906V28.0003H88.114L88.1174 19.9236Z" fill="#AFB1B8"/>
<path d="M96.2943 24.9208L94.4021 19.9349H95.9954L97.1504 23.1376L98.2341 19.9349H99.7934L97.925 24.9208V28.0003H96.2943V24.9208Z" fill="#AFB1B8"/>
<path d="M56.0478 31.5316V31.9539H54.6618V35.2359H54.0809V31.9539H52.688V31.5316H56.0478Z" fill="#AFB1B8"/>
<path d="M60.3926 35.2361H59.9441C59.8986 35.2386 59.8536 35.226 59.8184 35.2009C59.7845 35.1794 59.7585 35.1499 59.7437 35.1159L59.3428 34.2361H57.42L57.0191 35.1159C57.0077 35.1527 56.9868 35.1868 56.9579 35.2156C56.9224 35.2402 56.8777 35.2527 56.8322 35.2508H56.3838L58.0824 31.5467H58.6735L60.3926 35.2361ZM57.5796 33.8607H59.1831L58.5037 32.3532C58.4536 32.2392 58.4116 32.1227 58.378 32.0042C58.3542 32.0746 58.3338 32.142 58.3134 32.2007L58.2523 32.3561L57.5796 33.8607Z" fill="#AFB1B8"/>
<path d="M63.321 34.8723C63.4274 34.8771 63.534 34.8771 63.6404 34.8723C63.7322 34.8642 63.8231 34.8495 63.9122 34.8283C63.9954 34.8107 64.0771 34.7882 64.1568 34.7609C64.2315 34.7345 64.3062 34.7022 64.3844 34.67V33.8369H63.7049C63.6881 33.8377 63.6713 33.8356 63.6555 33.8305C63.6397 33.8255 63.6253 33.8177 63.6132 33.8076C63.6021 33.7993 63.5932 33.7889 63.5873 33.7772C63.5815 33.7655 63.5787 33.7529 63.5792 33.7401V33.4556H64.8974V34.8753C64.7898 34.9417 64.6762 35.0006 64.5576 35.0513C64.4365 35.1029 64.3103 35.1451 64.1805 35.1774C64.0416 35.2127 63.8996 35.2382 63.7559 35.2537C63.5912 35.2694 63.4256 35.2773 63.2599 35.2771C62.9669 35.2792 62.6762 35.2324 62.4038 35.1393C62.1495 35.051 61.9184 34.9193 61.7243 34.7521C61.5352 34.5832 61.3863 34.3839 61.2861 34.1654C61.179 33.9199 61.126 33.6593 61.1298 33.3969C61.1263 33.133 61.1781 32.8706 61.2827 32.6226C61.3804 32.4031 61.5296 32.2033 61.7209 32.0359C61.9148 31.8693 62.146 31.7385 62.4004 31.6517C62.6913 31.5572 63.0001 31.5105 63.3108 31.5138C63.469 31.5137 63.6269 31.5244 63.7831 31.5461C63.9211 31.5655 64.0566 31.597 64.1873 31.64C64.3062 31.6785 64.42 31.7277 64.5271 31.7866C64.6312 31.8445 64.73 31.9092 64.8226 31.9802L64.6595 32.209C64.6468 32.2299 64.6278 32.2475 64.6044 32.2598C64.5811 32.2722 64.5544 32.279 64.5271 32.2794C64.4895 32.2783 64.453 32.2682 64.4217 32.2501C64.3708 32.2266 64.3164 32.1973 64.2553 32.1621C64.183 32.123 64.1069 32.0896 64.0277 32.0623C63.9264 32.0273 63.8218 31.9998 63.7151 31.9802C63.5728 31.9576 63.4283 31.9468 63.2837 31.9479C63.0595 31.9458 62.837 31.9806 62.628 32.0506C62.439 32.1161 62.2686 32.2161 62.1286 32.3439C61.9878 32.4771 61.8803 32.6338 61.8127 32.8044C61.6609 33.2056 61.6609 33.6381 61.8127 34.0393C61.887 34.2135 62.0027 34.3724 62.1524 34.5057C62.2917 34.6328 62.4608 34.7328 62.6484 34.799C62.8644 34.863 63.0934 34.888 63.321 34.8723Z" fill="#AFB1B8"/>
<path d="M68.7363 34.8135H70.5912V35.2359H68.1689V31.5316H68.7499L68.7363 34.8135Z" fill="#AFB1B8"/>
<path d="M72.5209 35.2359H71.9399V31.5316H72.5209V35.2359Z" fill="#AFB1B8"/>
<path d="M74.6814 31.5492C74.7159 31.5662 74.746 31.5892 74.7697 31.6167L77.253 34.409C77.2497 34.3651 77.2497 34.321 77.253 34.277C77.253 34.236 77.253 34.1949 77.253 34.1568V31.517H77.7592V35.2362H77.4671C77.4238 35.2392 77.3804 35.2321 77.3414 35.2156C77.3061 35.1972 77.275 35.1733 77.2496 35.1452L74.7697 32.3558C74.7697 32.3998 74.7697 32.4409 74.7697 32.482C74.7697 32.523 74.7697 32.5612 74.7697 32.5964V35.2362H74.2839V31.5316H74.5863C74.6191 31.5317 74.6515 31.5377 74.6814 31.5492Z" fill="#AFB1B8"/>
<path d="M82.0365 31.5316V31.9393H79.9778V33.1623H81.6458V33.5553H79.9778V34.8195H82.0365V35.2272H79.3799V31.5316H82.0365Z" fill="#AFB1B8"/>
<path d="M21.1618 8.65544L46.9568 14.9788V37.1367L21.1618 30.8164V8.65544ZM19.5073 6.76666V31.8927L48.6079 39.0285V13.9053L19.5073 6.76666Z" fill="#AFB1B8"/>
<path d="M35.1039 50.6922L6 43.5505V18.4271L35.1039 25.5658V50.6922Z" fill="#AFB1B8"/>
<path d="M19.9897 8.37093L45.4484 14.6149L34.6215 23.9648L9.1594 17.7179L19.9897 8.37093ZM19.5073 6.76666L6 18.4276L35.1039 25.5662L48.6078 13.9052L19.5073 6.76666Z" fill="#AFB1B8"/>
<path d="M36.7415 49.2788L48.6078 39.0315L36.7415 36.1192V49.2788Z" fill="#AFB1B8"/>
</svg>
